<svg width="58" height="89" fill="none" xmlns="http://www.w3.org/2000/svg"><path d="M13 82.082c-4.5 0-11-3.359-11-6.157V65.849" stroke="#fff" stroke-opacity=".77" stroke-width="1.25" stroke-linecap="round"/><path d="M46 81.522c4 0 9.5-2.799 9.5-5.597V64.73" stroke="#fff" stroke-opacity=".77" stroke-width="2" stroke-linecap="round"/><g filter="url(#filter0_d_4_17)"><path d="M22.001 5.338h-.5l-.002-1h.5l.002 1zm7.028-3.324a.502.502 0 01.966.262l-.966-.262zM22 4.338c1.12 0 1.848.351 2.492.662.629.304 1.168.563 2.02.563l.002 1c-1.097 0-1.815-.353-2.455-.662-.624-.302-1.177-.563-2.057-.563l-.002-1zm4.512 1.225c.308 0 .62-.154.94-.469.321-.315.607-.754.848-1.22a10.242 10.242 0 00.73-1.859v-.001a120.3 120.3 0 00.966.262v.004l-.004.01-.01.037a11.43 11.43 0 01-.192.597c-.133.38-.334.894-.601 1.41-.265.513-.608 1.054-1.033 1.473-.426.42-.975.756-1.642.756l-.003-1z" fill="#fff" fill-opacity=".77"/></g><g filter="url(#filter1_d_4_17)"><path d="M37.002 5.338l.5-.003-.004-1-.5.003.004 1zM29.967 1.86a.5.5 0 10-.934.358l.934-.358zm7.03 2.478c-.885.004-1.49.346-2.031.615-.534.264-1.078.504-1.965.504l-.002 1c1.112 0 1.819-.315 2.41-.609.584-.289.979-.507 1.593-.51l-.004-1zm-3.996 1.12c-.333 0-.689-.164-1.063-.49-.372-.324-.717-.77-1.016-1.239a11.524 11.524 0 01-.952-1.861l-.003-.007V1.86l-.467.18-.467.179a.382.382 0 00.006.014 3.874 3.874 0 00.068.168 12.527 12.527 0 00.971 1.866c.326.51.73 1.044 1.203 1.455.47.409 1.05.735 1.718.735l.002-1z" fill="#fff" fill-opacity=".77"/></g><g filter="url(#filter2_d_4_17)"><path d="M21 83.082a1 1 0 100-2v2zM4.017 16.592v-1h-2v1h2zM21 81.083c-7.663 0-11.967-1.24-14.318-2.577C4.334 77.169 4 75.79 4 75.418H2c0 1.292.916 3.245 3.693 4.825 2.774 1.578 7.47 2.839 15.307 2.839v-2zM4 75.418a676823.353 676823.353 0 01.015-49.868l.001-6.498.001-1.817v-.642h-2v2.458l-.002 6.498A8363850.714 8363850.714 0 002 75.418h2z" fill="#fff"/></g><g filter="url(#filter3_d_4_17)"><path d="M38 83.082a1 1 0 110-2v2zm15.983-67.609v-1h2v1h-2zM38 81.082c6.391 0 10.472-1.124 12.916-2.386 1.223-.631 2.02-1.289 2.5-1.843.504-.583.584-.962.584-1.046h2c0 .769-.42 1.6-1.072 2.355-.677.782-1.692 1.587-3.094 2.311-2.806 1.449-7.225 2.609-13.834 2.609v-2zm16-5.275L53.991 45l-.005-20.34-.002-6.664-.001-1.864v-.658l1-.001h1v2.522l.003 6.665L55.99 45 56 75.805h-2z" fill="#fff"/></g><g filter="url(#filter4_d_4_17)"><path d="M2 14.913c3.5 0 4 0 6-1.679 2-1.68 4.5-4.478 5-4.478" stroke="#fff"/></g><g filter="url(#filter5_d_4_17)"><path d="M56 14.913c-3.5 0-4 0-6-1.679-2-1.68-4.5-4.478-5-4.478" stroke="#fff"/></g><path d="M11.778 12.114C9.556 14.354 7.333 16.593 4 16.593v59.333c0 3.358 14.444 5.037 16.667 5.597 2.222.56 6.666 2.239 8.889 4.478 2.222-2.239 6.666-3.918 8.888-4.478C40.667 80.962 54 79.283 54 75.925V16.592c-3.322 0-5.534-2.223-7.755-4.454l-.023-.024c-2.17-2.18-6.11-5.597-8.889-5.597-2.222 0-5 3.359-7.777-1.12-2.81 4.479-5.556 1.12-7.778 1.12-2.778 0-7.778 3.359-10 5.597z" stroke="url(#paint0_linear_4_17)" stroke-width="3"/><path d="M12 12.114c-2 2.24-5 4.478-8 4.478v59.333c0 3.358 13.86 4.478 16.667 5.597 1.826.729 5.83 2.24 8.889 4.478 3.607-2.239 7.143-3.774 8.888-4.478C41.222 80.402 54 79.283 54 75.925V16.592c-3 0-6-2.239-8-4.477-2-2.24-5.722-5.598-8.5-5.598-2.778 0-5.222 3.918-8-1.68-2.778 5.598-5.222 1.68-8 1.68-2.778 0-7.5 3.359-9.5 5.597z" stroke="url(#paint1_linear_4_17)" stroke-width="1.5"/><g filter="url(#filter6_d_4_17)"><path d="M2 40.661v-20.71" stroke="#fff" stroke-opacity=".77" stroke-width="1.5" stroke-linecap="round" shape-rendering="crispEdges"/></g><g filter="url(#filter7_d_4_17)"><path d="M56 49.617v-20.71" stroke="#fff" stroke-opacity=".77" stroke-width="1.5" stroke-linecap="round" shape-rendering="crispEdges"/></g><defs><filter id="filter0_d_4_17" x="20.498" y=".645" width="10.514" height="6.918" filterUnits="userSpaceOnUse" color-interpolation-filters="sRGB"><feFlood flood-opacity="0" result="BackgroundImageFix"/><feColorMatrix in="SourceAlpha" values="0 0 0 0 0 0 0 0 0 0 0 0 0 0 0 0 0 0 127 0" result="hardAlpha"/><feOffset/><feGaussianBlur stdDeviation=".5"/><feComposite in2="hardAlpha" operator="out"/><feColorMatrix values="0 0 0 0 1 0 0 0 0 0.916876 0 0 0 0 0.2875 0 0 0 0.77 0"/><feBlend in2="BackgroundImageFix" result="effect1_dropShadow_4_17"/><feBlend in="SourceGraphic" in2="effect1_dropShadow_4_17" result="shape"/></filter><filter id="filter1_d_4_17" x="28" y=".539" width="10.502" height="6.918" filterUnits="userSpaceOnUse" color-interpolation-filters="sRGB"><feFlood flood-opacity="0" result="BackgroundImageFix"/><feColorMatrix in="SourceAlpha" values="0 0 0 0 0 0 0 0 0 0 0 0 0 0 0 0 0 0 127 0" result="hardAlpha"/><feOffset/><feGaussianBlur stdDeviation=".5"/><feComposite in2="hardAlpha" operator="out"/><feColorMatrix values="0 0 0 0 1 0 0 0 0 0.916876 0 0 0 0 0.2875 0 0 0 0.77 0"/><feBlend in2="BackgroundImageFix" result="effect1_dropShadow_4_17"/><feBlend in="SourceGraphic" in2="effect1_dropShadow_4_17" result="shape"/></filter><filter id="filter2_d_4_17" x="1" y="14.592" width="22" height="69.49" filterUnits="userSpaceOnUse" color-interpolation-filters="sRGB"><feFlood flood-opacity="0" result="BackgroundImageFix"/><feColorMatrix in="SourceAlpha" values="0 0 0 0 0 0 0 0 0 0 0 0 0 0 0 0 0 0 127 0" result="hardAlpha"/><feOffset/><feGaussianBlur stdDeviation=".5"/><feComposite in2="hardAlpha" operator="out"/><feColorMatrix values="0 0 0 0 1 0 0 0 0 0.883334 0 0 0 0 0 0 0 0 0.77 0"/><feBlend in2="BackgroundImageFix" result="effect1_dropShadow_4_17"/><feBlend in="SourceGraphic" in2="effect1_dropShadow_4_17" result="shape"/></filter><filter id="filter3_d_4_17" x="36" y="13.473" width="21" height="70.609" filterUnits="userSpaceOnUse" color-interpolation-filters="sRGB"><feFlood flood-opacity="0" result="BackgroundImageFix"/><feColorMatrix in="SourceAlpha" values="0 0 0 0 0 0 0 0 0 0 0 0 0 0 0 0 0 0 127 0" result="hardAlpha"/><feOffset/><feGaussianBlur stdDeviation=".5"/><feComposite in2="hardAlpha" operator="out"/><feColorMatrix values="0 0 0 0 1 0 0 0 0 0.883334 0 0 0 0 0 0 0 0 0.77 0"/><feBlend in2="BackgroundImageFix" result="effect1_dropShadow_4_17"/><feBlend in="SourceGraphic" in2="effect1_dropShadow_4_17" result="shape"/></filter><filter id="filter4_d_4_17" x="1" y="7.256" width="13.095" height="9.157" filterUnits="userSpaceOnUse" color-interpolation-filters="sRGB"><feFlood flood-opacity="0" result="BackgroundImageFix"/><feColorMatrix in="SourceAlpha" values="0 0 0 0 0 0 0 0 0 0 0 0 0 0 0 0 0 0 127 0" result="hardAlpha"/><feOffset/><feGaussianBlur stdDeviation=".5"/><feComposite in2="hardAlpha" operator="out"/><feColorMatrix values="0 0 0 0 1 0 0 0 0 0.916876 0 0 0 0 0.2875 0 0 0 0.77 0"/><feBlend in2="BackgroundImageFix" result="effect1_dropShadow_4_17"/><feBlend in="SourceGraphic" in2="effect1_dropShadow_4_17" result="shape"/></filter><filter id="filter5_d_4_17" x="43.905" y="7.256" width="13.095" height="9.157" filterUnits="userSpaceOnUse" color-interpolation-filters="sRGB"><feFlood flood-opacity="0" result="BackgroundImageFix"/><feColorMatrix in="SourceAlpha" values="0 0 0 0 0 0 0 0 0 0 0 0 0 0 0 0 0 0 127 0" result="hardAlpha"/><feOffset/><feGaussianBlur stdDeviation=".5"/><feComposite in2="hardAlpha" operator="out"/><feColorMatrix values="0 0 0 0 1 0 0 0 0 0.916876 0 0 0 0 0.2875 0 0 0 0.77 0"/><feBlend in2="BackgroundImageFix" result="effect1_dropShadow_4_17"/><feBlend in="SourceGraphic" in2="effect1_dropShadow_4_17" result="shape"/></filter><filter id="filter6_d_4_17" x=".25" y="18.201" width="3.5" height="24.21" filterUnits="userSpaceOnUse" color-interpolation-filters="sRGB"><feFlood flood-opacity="0" result="BackgroundImageFix"/><feColorMatrix in="SourceAlpha" values="0 0 0 0 0 0 0 0 0 0 0 0 0 0 0 0 0 0 127 0" result="hardAlpha"/><feOffset/><feGaussianBlur stdDeviation=".5"/><feComposite in2="hardAlpha" operator="out"/><feColorMatrix values="0 0 0 0 1 0 0 0 0 0.916876 0 0 0 0 0.2875 0 0 0 0.77 0"/><feBlend in2="BackgroundImageFix" result="effect1_dropShadow_4_17"/><feBlend in="SourceGraphic" in2="effect1_dropShadow_4_17" result="shape"/></filter><filter id="filter7_d_4_17" x="54.25" y="27.157" width="3.5" height="24.21" filterUnits="userSpaceOnUse" color-interpolation-filters="sRGB"><feFlood flood-opacity="0" result="BackgroundImageFix"/><feColorMatrix in="SourceAlpha" values="0 0 0 0 0 0 0 0 0 0 0 0 0 0 0 0 0 0 127 0" result="hardAlpha"/><feOffset/><feGaussianBlur stdDeviation=".5"/><feComposite in2="hardAlpha" operator="out"/><feColorMatrix values="0 0 0 0 1 0 0 0 0 0.916876 0 0 0 0 0.2875 0 0 0 0.77 0"/><feBlend in2="BackgroundImageFix" result="effect1_dropShadow_4_17"/><feBlend in="SourceGraphic" in2="effect1_dropShadow_4_17" result="shape"/></filter><linearGradient id="paint0_linear_4_17" x1="29" y1="5.398" x2="29" y2="86" gradientUnits="userSpaceOnUse"><stop offset=".88" stop-color="#5F3AE0"/><stop offset=".98" stop-color="#fff"/></linearGradient><linearGradient id="paint1_linear_4_17" x1="29" y1="5.401" x2="29" y2="86" gradientUnits="userSpaceOnUse"><stop offset=".125" stop-color="#260460"/><stop offset=".725" stop-color="#260460"/><stop offset=".905" stop-color="#fff" stop-opacity=".28"/></linearGradient></defs></svg>